<svg id="Capa_1" data-name="Capa 1" xmlns="http://www.w3.org/2000/svg" viewBox="0 0 33.11 13.83"><defs><style>.cls-1{fill:#39668b;}</style></defs><polygon class="cls-1" points="1.54 13.76 0.68 10.93 0.68 13.76 0 13.76 0 10.29 1.27 10.29 1.88 12.37 2.52 10.29 3.79 10.29 3.79 13.76 2.97 13.76 2.97 10.93 2.1 13.76 1.54 13.76"/><path class="cls-1" d="M6.2,10.28l1.08,3.48H6.41l-.22-.71H5.07l-.22.71H4.14l1.11-3.48ZM5.27,12.4H6l-.36-1.22Z"/><path class="cls-1" d="M7.66,10.28H8.72a2,2,0,0,1,1,.18,1.72,1.72,0,0,1,.57.57,1.76,1.76,0,0,1,.25,1,1.83,1.83,0,0,1-.44,1.25,1.51,1.51,0,0,1-1.21.5H7.66Zm.8.64v2.19h.33a.75.75,0,0,0,.67-.33A1.48,1.48,0,0,0,9.67,12a1.4,1.4,0,0,0-.12-.58A.81.81,0,0,0,9.24,11a.87.87,0,0,0-.44-.11Z"/><polygon class="cls-1" points="13.53 10.95 11.87 10.95 11.87 11.66 13.17 11.66 13.17 12.31 11.87 12.31 11.87 13.07 13.53 13.07 13.53 13.76 11.04 13.76 11.04 10.29 13.53 10.29 13.53 10.95"/><rect class="cls-1" x="14.02" y="10.28" width="31.88" height="32"/><path class="cls-1" d="M16.35,12.38v1.38h-.82V10.28h1.53a2,2,0,0,1,.67.1.93.93,0,0,1,.43.36,1.1,1.1,0,0,1,.17.59.92.92,0,0,1-.61.89l.64,1.54h-.9l-.53-1.38Zm0-1.48v.89h.5a1.44,1.44,0,0,0,.35,0,.43.43,0,0,0,.2-.16.44.44,0,0,0,.09-.27.43.43,0,0,0-.28-.4,1.57,1.57,0,0,0-.38,0Z"/><path class="cls-1" d="M20.66,10.28l1.09,3.48h-.87l-.22-.71H19.54l-.22.71h-.71l1.11-3.48Zm-.93,2.12h.74l-.36-1.22Z"/><polygon class="cls-1" points="23.26 13.76 22.83 13.76 22.83 10.67 21.83 10.67 21.83 10.29 24.26 10.29 24.26 10.67 23.26 10.67 23.26 13.76"/><polygon class="cls-1" points="27 13.38 27 13.76 24.75 13.76 24.75 10.29 26.95 10.29 26.95 10.67 25.18 10.67 25.18 11.77 26.58 11.77 26.58 12.13 25.18 12.13 25.18 13.38 27 13.38"/><path class="cls-1" d="M29.69,12.59l.4.09a1.28,1.28,0,0,1-1.29,1.15,1.19,1.19,0,0,1-1-.53A2.2,2.2,0,0,1,27.39,12a2,2,0,0,1,.39-1.29,1.29,1.29,0,0,1,1-.49,1.26,1.26,0,0,1,1.26,1.12l-.41.08c-.15-.55-.43-.83-.85-.83a.81.81,0,0,0-.72.39,2.05,2.05,0,0,0-.25,1.08,1.85,1.85,0,0,0,.26,1,.78.78,0,0,0,.69.38c.44,0,.74-.29.88-.87"/><polygon class="cls-1" points="33.11 13.76 32.68 13.76 32.68 12.11 31.06 12.11 31.06 13.76 30.63 13.76 30.63 10.29 31.06 10.29 31.06 11.72 32.68 11.72 32.68 10.29 33.11 10.29 33.11 13.76"/><polygon class="cls-1" points="16.56 2.35 12.04 0 12.04 9.04 15.63 9.04 15.63 5.43 13.87 5.43 13.87 3.57 19.24 3.57 19.24 5.43 17.49 5.43 17.49 9.04 21.07 9.04 21.07 0 16.56 2.35"/></svg>